<svg width="156" height="19" viewBox="0 0 156 19" fill="none" xmlns="http://www.w3.org/2000/svg">
<path d="M7.176 2.112H6.888C5.464 2.112 4.352 2.472 3.552 3.192C2.768 3.896 2.376 5.152 2.376 6.96C2.376 7.552 2.432 7.968 2.544 8.208C2.656 8.432 2.712 8.56 2.712 8.592C1.848 8.592 1.2 8.416 0.768 8.064C0.352 7.696 0.144 7.096 0.144 6.264C0.144 5.128 0.424 4.096 0.984 3.168C1.544 2.224 2.432 1.464 3.648 0.887999C4.88 0.311999 6.44 0.0239997 8.328 0.0239997C9.384 0.0239997 10.52 0.119999 11.736 0.311999C12.76 0.487999 13.672 0.576 14.472 0.576C15.496 0.576 16.424 0.408 17.256 0.0719991C17.224 1.112 16.96 1.88 16.464 2.376C15.968 2.872 15.232 3.12 14.256 3.12C13.744 3.12 13.232 3.08 12.72 3C12.208 2.92 11.48 2.784 10.536 2.592L7.224 18H3.768L7.176 2.112ZM15.0587 18.096C13.8747 18.096 12.9387 17.792 12.2507 17.184C11.5627 16.576 11.2187 15.616 11.2187 14.304C11.2187 13.2 11.4347 11.992 11.8667 10.68C12.2987 9.352 13.0027 8.208 13.9787 7.248C14.9547 6.272 16.2027 5.784 17.7227 5.784C19.6107 5.784 20.6267 6.864 20.7707 9.024C21.1227 8.944 21.4347 8.752 21.7067 8.448C21.9787 8.128 22.2347 7.768 22.4747 7.368H23.2427C22.8107 8.232 22.4267 8.912 22.0907 9.408C21.7547 9.888 21.3147 10.28 20.7707 10.584C20.6747 12.088 20.3627 13.408 19.8347 14.544C19.3227 15.68 18.6507 16.56 17.8187 17.184C16.9867 17.792 16.0667 18.096 15.0587 18.096ZM16.0187 15.936C16.6107 15.936 17.1627 15.456 17.6747 14.496C18.1867 13.536 18.5387 12.352 18.7307 10.944C18.3467 10.8 18.1547 10.44 18.1547 9.864C18.1547 9.24 18.3787 8.824 18.8267 8.616C18.7947 8.104 18.7067 7.752 18.5627 7.56C18.4347 7.352 18.2187 7.248 17.9147 7.248C17.3867 7.248 16.8827 7.632 16.4027 8.4C15.9227 9.152 15.5307 10.072 15.2267 11.16C14.9387 12.232 14.7947 13.176 14.7947 13.992C14.7947 14.76 14.8827 15.28 15.0587 15.552C15.2347 15.808 15.5547 15.936 16.0187 15.936ZM34.1651 18.384C32.3571 18.384 31.0291 17.928 30.1811 17.016C29.3331 16.104 28.9091 14.592 28.9091 12.48C28.9091 10.8 29.1891 8.992 29.7491 7.056C30.3251 5.12 31.2371 3.464 32.4851 2.088C33.7491 0.695999 35.3491 -1.43051e-06 37.2851 -1.43051e-06C38.4851 -1.43051e-06 39.4531 0.263999 40.1891 0.792C40.9251 1.32 41.2931 2.128 41.2931 3.216C41.2931 3.904 41.1571 4.448 40.8851 4.848C40.6131 5.232 40.1891 5.424 39.6131 5.424C39.0371 5.424 38.5811 5.216 38.2451 4.8C38.5331 4.656 38.7891 4.368 39.0131 3.936C39.2371 3.504 39.3491 3.056 39.3491 2.592C39.3491 2.16 39.2291 1.808 38.9891 1.536C38.7651 1.264 38.3971 1.128 37.8851 1.128C37.0371 1.128 36.2291 1.712 35.4611 2.88C34.6931 4.032 34.0691 5.488 33.5891 7.248C33.1251 9.008 32.8931 10.704 32.8931 12.336C32.8931 13.552 33.1011 14.48 33.5171 15.12C33.9331 15.76 34.6851 16.08 35.7731 16.08C36.7171 16.08 37.5891 15.872 38.3891 15.456C39.1891 15.04 39.8771 14.448 40.4531 13.68L41.0051 13.92C40.6051 14.928 40.0131 15.768 39.2291 16.44C38.4451 17.112 37.6051 17.608 36.7091 17.928C35.8131 18.232 34.9651 18.384 34.1651 18.384ZM43.8868 18.096C42.7028 18.096 41.7668 17.792 41.0788 17.184C40.3908 16.576 40.0468 15.616 40.0468 14.304C40.0468 13.216 40.2708 12.008 40.7188 10.68C41.1668 9.352 41.8868 8.208 42.8788 7.248C43.8708 6.272 45.1188 5.784 46.6228 5.784C48.6708 5.784 49.6948 7.064 49.6948 9.624V9.648C49.7428 9.664 49.8308 9.672 49.9588 9.672C50.4868 9.672 51.0948 9.536 51.7828 9.264C52.4708 8.976 53.0948 8.632 53.6548 8.232L53.8708 8.88C53.4068 9.376 52.7988 9.8 52.0468 10.152C51.3108 10.488 50.5028 10.728 49.6228 10.872C49.4948 12.328 49.1668 13.6 48.6388 14.688C48.1108 15.776 47.4308 16.616 46.5988 17.208C45.7668 17.8 44.8628 18.096 43.8868 18.096ZM44.8468 15.936C45.2308 15.936 45.6148 15.72 45.9988 15.288C46.3828 14.84 46.7188 14.24 47.0068 13.488C47.2948 12.72 47.5028 11.872 47.6308 10.944C47.1988 10.848 46.9828 10.512 46.9828 9.936C46.9828 9.28 47.2308 8.848 47.7268 8.64C47.6948 8.112 47.6148 7.752 47.4868 7.56C47.3588 7.352 47.1348 7.248 46.8148 7.248C46.2868 7.248 45.7748 7.632 45.2788 8.4C44.7828 9.168 44.3828 10.088 44.0788 11.16C43.7748 12.232 43.6228 13.176 43.6228 13.992C43.6228 14.76 43.7108 15.28 43.8868 15.552C44.0628 15.808 44.3828 15.936 44.8468 15.936ZM54.4337 18.096C53.2497 18.096 52.3137 17.792 51.6257 17.184C50.9377 16.576 50.5937 15.616 50.5937 14.304C50.5937 13.216 50.8177 12.008 51.2657 10.68C51.7137 9.352 52.4337 8.208 53.4257 7.248C54.4177 6.272 55.6657 5.784 57.1697 5.784C59.2177 5.784 60.2417 7.064 60.2417 9.624V9.648C60.2897 9.664 60.3777 9.672 60.5057 9.672C61.0337 9.672 61.6417 9.536 62.3297 9.264C63.0177 8.976 63.6417 8.632 64.2017 8.232L64.4177 8.88C63.9537 9.376 63.3457 9.8 62.5937 10.152C61.8577 10.488 61.0497 10.728 60.1697 10.872C60.0417 12.328 59.7137 13.6 59.1857 14.688C58.6577 15.776 57.9777 16.616 57.1457 17.208C56.3137 17.8 55.4097 18.096 54.4337 18.096ZM55.3937 15.936C55.7777 15.936 56.1617 15.72 56.5457 15.288C56.9297 14.84 57.2657 14.24 57.5537 13.488C57.8417 12.72 58.0497 11.872 58.1777 10.944C57.7457 10.848 57.5297 10.512 57.5297 9.936C57.5297 9.28 57.7777 8.848 58.2737 8.64C58.2417 8.112 58.1617 7.752 58.0337 7.56C57.9057 7.352 57.6817 7.248 57.3617 7.248C56.8337 7.248 56.3217 7.632 55.8257 8.4C55.3297 9.168 54.9297 10.088 54.6257 11.16C54.3217 12.232 54.1697 13.176 54.1697 13.992C54.1697 14.76 54.2577 15.28 54.4337 15.552C54.6097 15.808 54.9297 15.936 55.3937 15.936ZM70.5006 18.144C69.5086 18.144 68.7566 17.912 68.2446 17.448C67.7326 16.968 67.4766 16.288 67.4766 15.408C67.4766 15.024 67.5246 14.608 67.6206 14.16L67.8126 13.224C67.8766 12.952 67.9086 12.656 67.9086 12.336C67.9086 11.568 67.6206 11.184 67.0446 11.184C66.7886 11.184 66.5166 11.256 66.2286 11.4C65.9566 11.544 65.6366 11.768 65.2686 12.072L64.0206 18H60.5646L64.0446 1.68L67.5966 1.2L65.7966 9.648L70.4286 6H72.8046L68.0046 9.336C68.2446 9.272 68.5086 9.24 68.7966 9.24C69.6606 9.24 70.3166 9.504 70.7646 10.032C71.2126 10.56 71.4366 11.232 71.4366 12.048C71.4366 12.384 71.4046 12.688 71.3406 12.96L71.0766 14.16C70.9966 14.448 70.9566 14.704 70.9566 14.928C70.9566 15.52 71.2686 15.816 71.8926 15.816C72.2446 15.816 72.4686 15.792 72.5646 15.744C72.6606 15.696 72.7166 15.672 72.7326 15.672C72.7006 16.2 72.5486 16.648 72.2766 17.016C72.0206 17.384 71.7166 17.664 71.3646 17.856C71.0286 18.048 70.7406 18.144 70.5006 18.144ZM80.88 18.144C79.968 18.144 79.208 17.832 78.6 17.208C77.992 16.584 77.688 15.608 77.688 14.28C77.688 13.096 77.92 11.856 78.384 10.56C78.864 9.248 79.568 8.144 80.496 7.248C81.44 6.336 82.56 5.88 83.856 5.88C84.512 5.88 85 5.992 85.32 6.216C85.64 6.44 85.8 6.736 85.8 7.104V7.272L86.064 6H89.52L87.792 14.16C87.728 14.4 87.696 14.656 87.696 14.928C87.696 15.616 88.024 15.96 88.68 15.96C89.128 15.96 89.512 15.752 89.832 15.336C90.168 14.92 90.432 14.376 90.624 13.704H91.632C91.04 15.432 90.304 16.608 89.424 17.232C88.56 17.84 87.688 18.144 86.808 18.144C86.136 18.144 85.592 17.96 85.176 17.592C84.776 17.208 84.536 16.656 84.456 15.936C83.992 16.592 83.472 17.128 82.896 17.544C82.336 17.944 81.664 18.144 80.88 18.144ZM82.44 15.816C82.84 15.816 83.232 15.632 83.616 15.264C84.016 14.88 84.288 14.36 84.432 13.704L85.584 8.28C85.584 8.072 85.504 7.872 85.344 7.68C85.184 7.472 84.936 7.368 84.6 7.368C83.96 7.368 83.384 7.744 82.872 8.496C82.36 9.232 81.96 10.128 81.672 11.184C81.384 12.224 81.24 13.144 81.24 13.944C81.24 14.744 81.352 15.256 81.576 15.48C81.816 15.704 82.104 15.816 82.44 15.816ZM92.8888 18.144C92.0728 18.144 91.4648 17.896 91.0648 17.4C90.6808 16.904 90.4888 16.248 90.4888 15.432C90.4888 15.016 90.5368 14.592 90.6328 14.16L92.1688 6.96H91.3768L91.5688 6H92.3608L93.0808 2.688L96.6328 2.208C96.4888 2.816 96.4088 3.176 96.3928 3.288C96.2808 3.736 96.0888 4.64 95.8168 6H97.2568L97.0648 6.96H95.6248L94.0888 14.16C94.0088 14.512 93.9688 14.792 93.9688 15C93.9688 15.576 94.2488 15.864 94.8088 15.864C95.0968 15.864 95.3048 15.84 95.4328 15.792C95.1128 16.72 94.7368 17.344 94.3048 17.664C93.8728 17.984 93.4008 18.144 92.8888 18.144ZM108.349 1.68C107.277 2.128 106.445 2.8 105.853 3.696C105.277 4.592 104.989 5.672 104.989 6.936C104.989 7.528 105.045 7.944 105.157 8.184C105.269 8.408 105.325 8.536 105.325 8.568C104.461 8.568 103.813 8.392 103.381 8.04C102.965 7.672 102.757 7.072 102.757 6.24C102.757 5.216 103.173 4.224 104.005 3.264C104.853 2.288 105.933 1.504 107.245 0.912C108.557 0.303999 109.869 -1.43051e-06 111.181 -1.43051e-06C111.405 -1.43051e-06 111.725 0.0159988 112.141 0.0479994L110.605 7.2H114.133L115.669 0.0479994H119.125L115.309 18H111.853L113.773 8.976H110.245L108.325 18H104.869L108.349 1.68ZM121.934 18.096C120.75 18.096 119.814 17.792 119.126 17.184C118.438 16.576 118.094 15.616 118.094 14.304C118.094 13.216 118.318 12.008 118.766 10.68C119.214 9.352 119.934 8.208 120.926 7.248C121.918 6.272 123.166 5.784 124.67 5.784C126.718 5.784 127.742 7.064 127.742 9.624V9.648C127.79 9.664 127.878 9.672 128.006 9.672C128.534 9.672 129.142 9.536 129.83 9.264C130.518 8.976 131.142 8.632 131.702 8.232L131.918 8.88C131.454 9.376 130.846 9.8 130.094 10.152C129.358 10.488 128.55 10.728 127.67 10.872C127.542 12.328 127.214 13.6 126.686 14.688C126.158 15.776 125.478 16.616 124.646 17.208C123.814 17.8 122.91 18.096 121.934 18.096ZM122.894 15.936C123.278 15.936 123.662 15.72 124.046 15.288C124.43 14.84 124.766 14.24 125.054 13.488C125.342 12.72 125.55 11.872 125.678 10.944C125.246 10.848 125.03 10.512 125.03 9.936C125.03 9.28 125.278 8.848 125.774 8.64C125.742 8.112 125.662 7.752 125.534 7.56C125.406 7.352 125.182 7.248 124.862 7.248C124.334 7.248 123.822 7.632 123.326 8.4C122.83 9.168 122.43 10.088 122.126 11.16C121.822 12.232 121.67 13.176 121.67 13.992C121.67 14.76 121.758 15.28 121.934 15.552C122.11 15.808 122.43 15.936 122.894 15.936ZM143.569 18.144C142.593 18.144 141.873 17.888 141.409 17.376C140.961 16.848 140.737 16.2 140.737 15.432C140.737 15.096 140.777 14.72 140.857 14.304C140.937 13.872 141.017 13.456 141.097 13.056C141.193 12.656 141.257 12.4 141.289 12.288C141.417 11.728 141.537 11.176 141.649 10.632C141.761 10.088 141.817 9.648 141.817 9.312C141.817 8.496 141.529 8.088 140.953 8.088C140.537 8.088 140.169 8.296 139.849 8.712C139.529 9.112 139.273 9.64 139.081 10.296L137.449 18H133.993L135.745 9.72C135.793 9.528 135.817 9.328 135.817 9.12C135.817 8.416 135.577 8.064 135.097 8.064C134.649 8.064 134.257 8.272 133.921 8.688C133.601 9.088 133.345 9.624 133.153 10.296L131.521 18H128.065L130.609 6H134.065L133.801 7.248C134.617 6.336 135.593 5.88 136.729 5.88C138.137 5.88 138.961 6.568 139.201 7.944C140.081 6.584 141.193 5.904 142.537 5.904C143.353 5.904 144.001 6.128 144.481 6.576C144.961 7.024 145.201 7.704 145.201 8.616C145.201 9.08 145.145 9.6 145.033 10.176C144.921 10.736 144.761 11.424 144.553 12.24C144.425 12.736 144.305 13.224 144.193 13.704C144.097 14.168 144.049 14.536 144.049 14.808C144.049 15.128 144.121 15.376 144.265 15.552C144.409 15.728 144.657 15.816 145.009 15.816C145.489 15.816 145.873 15.648 146.161 15.312C146.449 14.96 146.737 14.424 147.025 13.704H148.033C147.441 15.464 146.753 16.648 145.969 17.256C145.201 17.848 144.401 18.144 143.569 18.144ZM150.407 18.144C149.239 18.144 148.327 17.84 147.671 17.232C147.015 16.608 146.687 15.64 146.687 14.328C146.687 13.224 146.903 12.008 147.335 10.68C147.767 9.352 148.471 8.208 149.447 7.248C150.423 6.272 151.663 5.784 153.167 5.784C154.927 5.784 155.807 6.552 155.807 8.088C155.807 8.984 155.551 9.808 155.039 10.56C154.527 11.312 153.847 11.92 152.999 12.384C152.151 12.832 151.247 13.088 150.287 13.152C150.255 13.504 150.239 13.744 150.239 13.872C150.239 15.2 150.735 15.864 151.727 15.864C152.175 15.864 152.655 15.744 153.167 15.504C153.679 15.264 154.143 14.96 154.559 14.592C154.127 16.96 152.743 18.144 150.407 18.144ZM150.455 12C151.063 11.984 151.631 11.784 152.159 11.4C152.703 11.016 153.135 10.528 153.455 9.936C153.791 9.328 153.959 8.696 153.959 8.04C153.959 7.384 153.759 7.056 153.359 7.056C152.799 7.056 152.239 7.568 151.679 8.592C151.135 9.6 150.727 10.736 150.455 12Z" fill="black"/>
</svg>
